<svg width="185" height="34" viewBox="0 0 185 34" fill="none" xmlns="http://www.w3.org/2000/svg">
<rect width="185" height="34" rx="17" fill="#50AB75"/>
<path d="M41.8442 22.0146V23.4619H26.6294V22.0146H33.2905V18.0625H35.0346V22.0146H41.8442ZM35.0718 11.2715C35.0718 13.9062 37.9663 16.374 41.1762 16.9121L40.4155 18.3594C37.7251 17.8213 35.248 16.1606 34.144 13.8691C33.0493 16.1514 30.6001 17.8398 27.9282 18.3594L27.1489 16.9121C30.3403 16.374 33.2163 13.9062 33.2163 11.2715V10.0098H35.0718V11.2715ZM50.2406 9.1377C53.9886 9.1377 56.1781 10.1582 56.1781 11.9951C56.1781 13.8506 53.9886 14.8711 50.2406 14.8711C46.4925 14.8711 44.3031 13.8506 44.3031 11.9951C44.3031 10.1582 46.4925 9.1377 50.2406 9.1377ZM50.2406 10.4551C47.5873 10.4736 46.1214 11.0117 46.14 11.9951C46.1214 13.0342 47.5873 13.5537 50.2406 13.5537C52.8939 13.5537 54.3597 13.0342 54.3597 11.9951C54.3597 11.0117 52.8939 10.4736 50.2406 10.4551ZM57.8295 15.8545V17.2461H51.1127V18.6748H55.9183V22.5713H46.2328V24.0557H56.3822V25.4102H44.5072V21.291H54.1742V19.9922H44.4886V18.6748H49.35V17.2461H42.6703V15.8545H57.8295ZM65.7248 10.8262V15.1494H67.9514V9.26758H69.6399V24.7607H67.9514V16.5967H65.7248V21.1982H59.2678V10.8262H65.7248ZM60.9377 12.2178V19.7881H64.0735V12.2178H60.9377ZM73.0168 8.95215V25.5771H71.3284V8.95215H73.0168ZM88.5196 8.95215V25.6143H86.757V8.95215H88.5196ZM79.632 10.1953C82.0997 10.1953 83.9181 12.459 83.9181 16.0215C83.9181 19.6025 82.0997 21.8662 79.632 21.8662C77.1271 21.8662 75.3273 19.6025 75.3273 16.0215C75.3273 12.459 77.1271 10.1953 79.632 10.1953ZM79.632 11.7725C78.0919 11.7725 77.0343 13.4053 77.0343 16.0215C77.0343 18.6562 78.0919 20.2891 79.632 20.2891C81.1534 20.2891 82.2111 18.6562 82.2111 16.0215C82.2111 13.4053 81.1534 11.7725 79.632 11.7725ZM104.282 17.8027V19.2129H92.7041V10.3252H104.115V11.7539H94.4854V13.999H103.763V15.3906H94.4854V17.8027H104.282ZM106.008 22.0332V23.4805H90.793V22.0332H106.008ZM112.252 10.1396C114.887 10.1211 116.761 11.7539 116.779 14.0918C116.761 16.4297 114.887 18.0625 112.252 18.0625C109.636 18.0625 107.706 16.4297 107.724 14.0918C107.706 11.7539 109.636 10.1211 112.252 10.1396ZM112.252 11.6611C110.638 11.6611 109.45 12.626 109.469 14.0918C109.45 15.5576 110.638 16.5225 112.252 16.5225C113.866 16.5225 115.054 15.5576 115.054 14.0918C115.054 12.626 113.866 11.6611 112.252 11.6611ZM120.583 8.95215V25.6143H118.82V8.95215H120.583ZM106.927 20.5674C109.951 20.5674 114.144 20.5303 117.781 20.0107L117.911 21.291C114.144 22.0146 110.118 22.0332 107.149 22.0332L106.927 20.5674ZM142.348 22.0518V23.499H127.133V22.0518H133.85V18.1182H135.613V22.0518H142.348ZM135.631 11.9766C135.631 14.5186 138.507 16.7822 141.68 17.2832L140.975 18.6748C138.294 18.1646 135.817 16.606 134.741 14.4258C133.655 16.6338 131.197 18.2388 128.562 18.749L127.839 17.3574C130.937 16.8379 133.795 14.5186 133.795 11.9766V11.8281H128.395V10.3809H141.031V11.8281H135.631V11.9766ZM157.035 8.9707V21.1797H155.272V14.9453H152.025C151.645 16.9492 149.928 18.3037 147.776 18.3037C145.271 18.3037 143.416 16.5781 143.416 14.1475C143.416 11.7168 145.271 10.0098 147.776 10.0098C149.984 10.0098 151.728 11.4199 152.062 13.498H155.272V8.9707H157.035ZM157.48 23.7959V25.2246H146.236V19.9365H147.999V23.7959H157.48ZM147.776 11.5498C146.236 11.5498 145.104 12.5889 145.104 14.1475C145.104 15.7061 146.236 16.7822 147.776 16.7822C149.279 16.7822 150.411 15.7061 150.411 14.1475C150.411 12.5889 149.279 11.5498 147.776 11.5498Z" fill="white"/>
</svg>
