<svg width="1344" height="1406" viewBox="0 0 1344 1406" fill="none" xmlns="http://www.w3.org/2000/svg">
<g clip-path="url(#clip0_1001_500)">
<path d="M1279.82 0.513674C1287.74 1.62725 1287.16 3.94161 1289.52 10.2071C1310.05 64.6985 1300.31 207.967 1287.37 266.524C1273.96 327.174 1242.14 406.251 1187.16 439.913C1149.45 325.114 1100.32 215.709 998.592 143.749C1050.72 94.101 1119.13 48.6859 1187.16 24.2073C1201.66 18.9883 1268.75 -1.04265 1279.82 0.513674Z" fill="#EAAB5D"/>
<path d="M61.5671 0.466797C167.331 17.8144 269.048 68.3882 344.952 143.702C242.96 216.46 196.816 325.752 156.384 439.866C61.6812 368.725 38.5457 212.294 43.2507 100.628C43.7809 88.0367 52.0968 2.94886 61.5671 0.466797Z" fill="#EAAB5D"/>
<path d="M269.525 1406C291.996 1345.15 323.937 1287.85 365.423 1238C396.579 1252.57 426.5 1274 458.086 1287.54C577.998 1338.94 707.878 1343.75 833.059 1306.93C884.431 1291.81 935.072 1266.5 980.678 1239.08L950.509 1201.38C991.551 1229.08 1053.59 1328.1 1071.19 1374.77C1073.17 1380.01 1083.68 1404.07 1078.74 1406.01H269.525V1406Z" fill="#EAAB5D"/>
<path d="M950.515 1201.38L980.685 1239.07C935.078 1266.49 884.438 1291.8 833.066 1306.92C707.878 1343.74 578.005 1338.93 458.092 1287.53C426.507 1273.99 396.586 1252.57 365.429 1237.99C323.944 1287.84 292.003 1345.14 269.532 1405.99C263.659 1402.98 281.385 1362.67 284.62 1355.38C310.943 1295.88 354.979 1239.26 399.915 1192.76C496.625 1227.95 599.348 1259.02 703.77 1253.06C786.526 1248.34 867.497 1218.5 945.132 1194.91C947.18 1195.74 949.951 1200.99 950.522 1201.37L950.515 1201.38Z" fill="#D19A57"/>
<path d="M984.994 892.333L1237.13 1008.64C1123.49 1129.97 915.675 1228.85 751.169 1252.03C540.922 1281.66 256.766 1162.46 112.201 1010.79L360.027 890.173C384.377 983.988 528.324 1016.99 611.087 1004.33C628.558 1001.66 667.426 981.057 671.426 980.634C673.876 980.379 708.167 997.808 716.684 1000.02C806.608 1023.4 952.354 991.166 984.987 892.327L984.994 892.333Z" fill="#F7E1C0"/>
<path d="M403.136 866.486C431.742 906.89 436.903 930.799 490.416 950.487C522.149 962.16 623.457 973.866 645.579 944.027C653.754 932.999 646.143 888.02 648.814 872.946C666.386 878.051 680.809 878.139 698.381 872.946C701.052 888.013 693.441 932.999 701.616 944.027C724.704 975.161 830.522 961.918 863.242 948.334C911.822 928.162 917.084 904.643 941.897 866.486C963.382 833.461 998.558 851.259 985 892.333C952.368 991.173 806.621 1023.41 716.697 1000.03C708.18 997.814 673.889 980.386 671.44 980.641C667.439 981.057 628.571 1001.66 611.101 1004.33C528.344 1016.99 384.397 983.995 360.04 890.18C350.328 852.768 380.309 834.246 403.143 866.486H403.136Z" fill="#795646"/>
<path d="M648.814 872.946C646.143 888.02 653.761 932.992 645.579 944.027C623.457 973.866 522.149 962.166 490.416 950.487C436.91 930.798 431.749 906.89 403.136 866.486L543.211 799.712C562.36 819.179 623.752 865.668 648.807 872.946H648.814Z" fill="#F7E1C0"/>
<path d="M941.897 866.486C917.077 904.643 911.815 928.162 863.242 948.334C830.522 961.918 724.704 975.16 701.616 944.027C693.441 933.006 701.052 888.02 698.381 872.946C723.496 865.527 784.862 819.24 803.977 799.712L941.897 866.486Z" fill="#F7E1C0"/>
<path d="M803.97 670.484C808.904 673.489 848.429 714.691 849.228 717.871C854.987 740.833 819.81 783.545 803.97 799.719C784.855 819.246 723.489 865.534 698.374 872.953C680.803 878.145 666.379 878.058 648.807 872.953C623.752 865.675 562.36 819.186 543.211 799.719C524.371 780.573 490.436 742.054 500.108 713.564C503.504 703.569 529.217 678.386 538.895 672.637C594.388 639.679 748.558 636.734 803.964 670.484H803.97Z" fill="#BB7451"/>
<path d="M641.27 689.864C688.937 686.282 771.432 689.569 803.977 727.558C805.145 748.997 702.421 829.369 680.064 832.019C645.485 836.118 558.185 761.361 543.218 727.558C543.956 705.763 624.262 691.145 641.27 689.864Z" fill="#E8A88B"/>
<path d="M702.69 48.0018C705.535 48.1158 708.462 47.8542 711.308 48.0018C715.14 57.5342 749.954 52.3018 752.256 55.5419C759.713 66.0471 742.531 281.343 745.793 311.859C781.238 361.352 793.621 299.214 799.668 268.778C813.004 201.689 813.454 131.117 819.065 63.082C1064.33 115.648 1104.2 230.346 1194.04 434.627C1240.97 541.356 1337.29 638.586 1342.74 752.325L1156.33 763.092C1134.57 769.303 1134.04 797.834 1154.17 806.172H1342.74C1340.5 824.613 1335.4 846.603 1329.81 864.326L1152.02 857.866C1132.11 868.875 1134.59 894.01 1156.33 900.947L1306.11 916.027C1285.59 955.002 1266.81 976.965 1237.14 1008.64L985.007 892.333C998.565 851.259 963.389 833.461 941.904 866.486L803.984 799.712C819.817 783.538 855 740.827 849.241 717.864C1016.73 840.841 1242.92 678.205 1170.34 479.861C1092.17 266.236 756.391 331.601 771.66 570.322C773.949 606.077 791.433 637.915 803.984 670.477C748.578 636.728 594.409 639.672 538.916 672.63C642.237 509.686 502.108 306.284 311.561 353.853C236.308 372.636 169.144 449.922 161.787 527.242C143.807 716.221 351.341 825.868 500.128 713.558C490.457 742.048 524.391 780.567 543.231 799.712L403.156 866.486C380.33 834.246 350.341 852.761 360.053 890.18L112.228 1010.8C79.8098 976.791 63.3189 958.376 41.1096 916.027C65.0505 910.124 196.064 908.158 204.89 891.26C210.012 881.452 205.716 861.059 195.192 857.873C181.963 853.868 55.9695 860.301 33.5656 862.18C31.9548 862.314 21.2629 864.863 19.5581 866.486C11.8664 843.47 7.75209 830.845 4.47003 806.179H190.883C226.462 781.419 204.085 765.949 171.486 760.945C115.644 752.372 56.4393 757.101 0.161072 752.331C0.355713 747.83 1.69807 738.217 2.31555 732.944C11.3496 725.928 11.2422 703.361 15.2424 690.944C36.2235 625.833 86.3135 575.628 118.684 516.475C171.795 419.433 190.292 304.976 263.068 217.084C326.582 140.382 419.916 96.2343 514.129 69.5421C524.854 117.292 526.237 166.852 534.6 214.931C537.875 233.747 552.131 323.075 568.004 328.012C599.456 337.793 599.516 306.935 599.254 286.012C598.328 212.496 582.119 132.01 579.857 57.6952C580.394 54.965 629.545 58.9966 633.733 48.0018C634.451 47.9615 635.169 48.0353 635.887 48.0018C641.586 151.417 640.055 256.2 650.975 359.239C654.56 393.069 656.734 436.854 673.601 465.861C685.474 464.808 697.24 337.954 698.381 322.626C705.186 231.48 701.455 139.335 702.69 48.0018Z" fill="#EAAB5D"/>
<path d="M702.69 48.0017C701.448 139.335 705.186 231.48 698.381 322.626C697.233 337.954 685.467 464.808 673.601 465.861C656.734 436.861 654.559 393.076 650.975 359.239C640.062 256.2 641.592 151.41 635.887 48.0017C656.815 46.9821 681.702 47.1699 702.696 48.0017H702.69Z" fill="#C57E41"/>
<path d="M633.726 48.0017C629.538 58.9966 580.388 54.9649 579.851 57.6952C582.113 132.003 598.322 212.496 599.248 286.012C599.509 306.935 599.449 337.793 567.998 328.012C552.131 323.075 537.869 233.747 534.593 214.931C526.23 166.852 524.848 117.292 514.122 69.542C419.909 96.2343 326.575 140.382 263.061 217.084C190.286 304.976 171.781 419.433 118.678 516.475C86.3067 575.628 36.2167 625.827 15.2357 690.944C11.2355 703.361 11.3429 725.928 2.30884 732.944C13.2155 639.74 74.9169 586.509 116.523 510.015C157.982 433.795 176.386 345.984 219.965 270.931C304.52 125.315 470.543 56.917 633.726 48.0017Z" fill="#C57E41"/>
<path d="M819.058 63.0819C813.447 131.117 813.004 201.688 799.661 268.778C793.614 299.207 781.231 361.346 745.786 311.859C742.524 281.349 759.706 66.0537 752.249 55.5418C749.954 52.3084 715.133 57.5342 711.301 48.0017C747.209 49.8532 783.949 55.5552 819.052 63.0819H819.058Z" fill="#C57E41"/>
<path d="M4.45661 806.179C2.01352 787.778 -0.671189 771.141 0.147648 752.331C56.4259 757.108 115.631 752.378 171.472 760.945C204.065 765.949 226.442 781.418 190.87 806.179H4.45661Z" fill="#C57E41"/>
<path d="M1342.73 752.331C1343.64 771.443 1345.07 786.899 1342.73 806.179H1154.16C1134.04 797.84 1134.56 769.317 1156.32 763.098L1342.73 752.331Z" fill="#C57E41"/>
<path d="M1329.8 864.333C1324.09 882.432 1314.89 899.31 1306.09 916.027L1156.32 900.947C1134.58 894.017 1132.1 868.875 1152.01 857.866L1329.8 864.326V864.333Z" fill="#C57E41"/>
<path d="M41.0962 916.027C30.7735 896.338 26.6256 887.671 19.5447 866.486C21.2495 864.856 31.9414 862.314 33.5522 862.179C55.9561 860.301 181.95 853.868 195.179 857.873C205.703 861.052 209.998 881.446 204.877 891.26C196.051 908.158 65.0371 910.124 41.0962 916.027Z" fill="#C57E41"/>
<path d="M369.738 431.4C538.305 410.229 554.547 656.832 412.841 676.944C245.577 700.684 224.623 449.627 369.738 431.4Z" fill="#151515"/>
<path d="M419.305 470.167C462.703 459.702 470.133 525.283 434.393 530.475C394.928 536.21 389.021 477.466 419.305 470.167Z" fill="white"/>
<path d="M936.508 431.4C1104.04 411.376 1117.21 658.637 975.295 676.944C806.742 698.685 791.171 448.768 936.508 431.4Z" fill="#151515"/>
<path d="M983.92 470.168C1029.23 460.95 1032 526.678 996.847 530.475C958.241 534.648 953.354 476.386 983.92 470.168Z" fill="white"/>
</g>
<defs>
<clipPath id="clip0_1001_500">
<rect width="1344" height="1405.57" fill="white" transform="translate(0 0.426514)"/>
</clipPath>
</defs>
</svg>
