<svg width="121" height="34" viewBox="0 0 121 34" fill="none" xmlns="http://www.w3.org/2000/svg">
<rect width="121" height="34" rx="17" fill="#50AB75"/>
<path d="M39.7343 7.95215V11.8672H42.1464V13.333H39.7343V17.3408H37.9716V7.95215H39.7343ZM35.1513 8.99121C35.1328 13.2588 32.2568 16.2461 27.3027 17.582L26.5976 16.1719C30.5683 15.1235 32.9155 13.0361 33.2402 10.4385H27.3769V8.99121H35.1513ZM39.7343 18.0459V24.3545H29.0839V18.0459H39.7343ZM30.8466 19.5117V22.9443H37.9902V19.5117H30.8466ZM56.5731 7.95215V17.8418H54.8104V13.6299H51.7117V12.1826H54.8104V7.95215H56.5731ZM51.0067 18.3057C54.4949 18.3057 56.6287 19.4561 56.6287 21.4414C56.6287 23.4268 54.4949 24.5586 51.0067 24.5771C47.5184 24.5586 45.366 23.4268 45.3846 21.4414C45.366 19.4561 47.5184 18.3057 51.0067 18.3057ZM51.0067 19.6787C48.576 19.6787 47.1287 20.3096 47.1287 21.4414C47.1287 22.5547 48.576 23.2041 51.0067 23.1855C53.4373 23.2041 54.8846 22.5547 54.8846 21.4414C54.8846 20.3096 53.4373 19.6787 51.0067 19.6787ZM48.6688 10.8838C48.6688 12.999 50.1717 15.04 52.6766 15.8936L51.7674 17.2852C49.9027 16.6357 48.5296 15.3091 47.8153 13.667C47.0823 15.5317 45.6258 17.0254 43.6405 17.749L42.7127 16.3389C45.2918 15.4482 46.869 13.2031 46.869 10.9023V10.5312H43.2694V9.10254H52.2313V10.5312H48.6688V10.8838ZM67.7252 8.50879C70.2301 8.52734 72.067 10.0674 72.0855 12.2383C72.067 14.4277 70.2301 15.9492 67.7252 15.9492C65.2017 15.9492 63.3463 14.4277 63.3463 12.2383C63.3463 10.0674 65.2017 8.52734 67.7252 8.50879ZM67.7252 9.99316C66.1851 9.97461 65.0533 10.8838 65.0719 12.2383C65.0533 13.6113 66.1851 14.5205 67.7252 14.5205C69.2467 14.5205 70.3785 13.6113 70.3785 12.2383C70.3785 10.8838 69.2467 9.97461 67.7252 9.99316ZM76.7984 7.95215V16.4131H75.0357V7.95215H76.7984ZM76.7984 17.1738V21.3672H67.6324V22.9629H77.3551V24.373H65.9254V20.0498H75.0543V18.584H65.8697V17.1738H76.7984ZM92.8764 7.95215V24.5771H91.0952V7.95215H92.8764ZM87.9223 9.7334C87.9223 14.5947 85.8442 18.8252 80.1479 21.5527L79.2202 20.124C83.6455 18.0181 85.7978 15.0215 86.1411 11.1436H80.018V9.7334H87.9223Z" fill="white"/>
</svg>
