<svg width="160" height="34" viewBox="0 0 160 34" fill="none" xmlns="http://www.w3.org/2000/svg">
<rect width="160" height="34" rx="17" fill="#50AB75"/>
<path d="M44.8295 18.3223V19.751H38.0755V25.5586H36.35V19.751H29.6703V18.3223H44.8295ZM43.4007 9.93555V11.3457H38.2611C38.2889 13.4053 40.8495 15.2422 43.9945 15.6689L43.3451 17.0605C40.6175 16.6338 38.2611 15.2886 37.2591 13.3867C36.2294 15.2886 33.8822 16.6338 31.1918 17.0605L30.5238 15.6689C33.6317 15.2422 36.1922 13.4053 36.2572 11.3457H31.0804V9.93555H43.4007ZM60.926 22.0332V23.499H45.7112V22.0332H49.3479V17.6914C47.9841 16.9399 47.1584 15.7432 47.1584 14.2588C47.1584 11.6426 49.719 9.91699 53.2815 9.91699C56.8625 9.91699 59.4231 11.6426 59.4231 14.2588C59.4231 15.7246 58.6252 16.9028 57.2893 17.6543V22.0332H60.926ZM53.2815 11.3271C50.6653 11.3271 48.8655 12.459 48.8655 14.2588C48.8655 16.04 50.6653 17.209 53.2815 17.209C55.8791 17.209 57.7161 16.04 57.7161 14.2588C57.7161 12.459 55.8791 11.3271 53.2815 11.3271ZM51.092 22.0332H55.508V18.3223C54.8308 18.4985 54.0793 18.582 53.2815 18.582C52.5022 18.582 51.76 18.4985 51.092 18.3408V22.0332ZM74.8146 8.95215V12.8672H77.2267V14.333H74.8146V18.3408H73.0519V8.95215H74.8146ZM70.2316 9.99121C70.213 14.2588 67.337 17.2461 62.3829 18.582L61.6779 17.1719C65.6486 16.1235 67.9957 14.0361 68.3204 11.4385H62.4571V9.99121H70.2316ZM74.8146 19.0459V25.3545H64.1642V19.0459H74.8146ZM65.9269 20.5117V23.9443H73.0704V20.5117H65.9269ZM91.6533 8.95215V18.8418H89.8906V14.6299H86.792V13.1826H89.8906V8.95215H91.6533ZM86.0869 19.3057C89.5752 19.3057 91.709 20.4561 91.709 22.4414C91.709 24.4268 89.5752 25.5586 86.0869 25.5771C82.5986 25.5586 80.4463 24.4268 80.4648 22.4414C80.4463 20.4561 82.5986 19.3057 86.0869 19.3057ZM86.0869 20.6787C83.6562 20.6787 82.209 21.3096 82.209 22.4414C82.209 23.5547 83.6562 24.2041 86.0869 24.1855C88.5176 24.2041 89.9648 23.5547 89.9648 22.4414C89.9648 21.3096 88.5176 20.6787 86.0869 20.6787ZM83.749 11.8838C83.749 13.999 85.252 16.04 87.7568 16.8936L86.8477 18.2852C84.9829 17.6357 83.6099 16.3091 82.8955 14.667C82.1626 16.5317 80.7061 18.0254 78.7207 18.749L77.793 17.3389C80.3721 16.4482 81.9492 14.2031 81.9492 11.9023V11.5312H78.3496V10.1025H87.3115V11.5312H83.749V11.8838ZM113.307 22.0332V23.499H98.0925V22.0332H101.729V17.6914C100.365 16.9399 99.5398 15.7432 99.5398 14.2588C99.5398 11.6426 102.1 9.91699 105.663 9.91699C109.244 9.91699 111.804 11.6426 111.804 14.2588C111.804 15.7246 111.007 16.9028 109.671 17.6543V22.0332H113.307ZM105.663 11.3271C103.047 11.3271 101.247 12.459 101.247 14.2588C101.247 16.04 103.047 17.209 105.663 17.209C108.261 17.209 110.097 16.04 110.097 14.2588C110.097 12.459 108.261 11.3271 105.663 11.3271ZM103.473 22.0332H107.889V18.3223C107.212 18.4985 106.461 18.582 105.663 18.582C104.884 18.582 104.141 18.4985 103.473 18.3408V22.0332ZM127.92 8.9707V21.0498H126.157V8.9707H127.92ZM128.421 23.7959V25.2246H117.047V19.8252H118.828V23.7959H128.421ZM118.902 10.084C121.407 10.084 123.318 11.791 123.318 14.2031C123.318 16.6523 121.407 18.3408 118.902 18.3408C116.397 18.3408 114.467 16.6523 114.467 14.2031C114.467 11.791 116.397 10.084 118.902 10.084ZM118.902 11.624C117.343 11.624 116.193 12.6816 116.193 14.2031C116.193 15.7617 117.343 16.8008 118.902 16.8008C120.423 16.8008 121.592 15.7617 121.592 14.2031C121.592 12.6816 120.423 11.624 118.902 11.624Z" fill="white"/>
</svg>
