<svg width="130" height="34" viewBox="0 0 130 34" fill="none" xmlns="http://www.w3.org/2000/svg">
<rect width="130" height="34" rx="17" fill="#50AB75"/>
<path d="M35.7532 8.95215V12.8672H38.1653V14.333H35.7532V18.3408H33.9905V8.95215H35.7532ZM31.1702 9.99121C31.1517 14.2588 28.2757 17.2461 23.3216 18.582L22.6165 17.1719C26.5872 16.1235 28.9344 14.0361 29.2591 11.4385H23.3958V9.99121H31.1702ZM35.7532 19.0459V25.3545H25.1028V19.0459H35.7532ZM26.8655 20.5117V23.9443H34.0091V20.5117H26.8655ZM52.592 8.95215V18.8418H50.8293V14.6299H47.7306V13.1826H50.8293V8.95215H52.592ZM47.0256 19.3057C50.5138 19.3057 52.6476 20.4561 52.6476 22.4414C52.6476 24.4268 50.5138 25.5586 47.0256 25.5771C43.5373 25.5586 41.3849 24.4268 41.4035 22.4414C41.3849 20.4561 43.5373 19.3057 47.0256 19.3057ZM47.0256 20.6787C44.5949 20.6787 43.1476 21.3096 43.1476 22.4414C43.1476 23.5547 44.5949 24.2041 47.0256 24.1855C49.4562 24.2041 50.9035 23.5547 50.9035 22.4414C50.9035 21.3096 49.4562 20.6787 47.0256 20.6787ZM44.6877 11.8838C44.6877 13.999 46.1906 16.04 48.6955 16.8936L47.7863 18.2852C45.9216 17.6357 44.5485 16.3091 43.8342 14.667C43.1013 16.5317 41.6447 18.0254 39.6594 18.749L38.7316 17.3389C41.3107 16.4482 42.8879 14.2031 42.8879 11.9023V11.5312H39.2883V10.1025H48.2502V11.5312H44.6877V11.8838ZM72.205 10.6406V12.4219C72.205 14.5742 72.205 16.9121 71.5927 20.4561L69.7929 20.2891C70.4609 16.9678 70.4609 14.5186 70.4609 12.4219V12.0879H60.664V10.6406H72.205ZM74.1904 21.7549V23.2207H59.0312V21.7549H74.1904ZM81.8631 10.6963V16.708H77.2987V20.2148C79.1077 20.2056 80.8148 20.1221 82.8094 19.8066L82.9578 21.2168C80.6385 21.625 78.8016 21.6807 76.7235 21.6992H75.5916V15.2607H80.1561V12.1436H75.5731V10.6963H81.8631ZM89.3406 8.95215V25.5771H87.6522V16.8564H85.4998V24.7236H83.8856V9.28613H85.4998V15.4277H87.6522V8.95215H89.3406ZM106.328 22.0146V23.499H91.113V22.0146H106.328ZM104.936 10.5479V11.9951H102.394V17.543H104.881V18.9531H92.4489V17.543H94.9353V11.9951H92.4118V10.5479H104.936ZM96.6794 17.543H100.669V11.9951H96.6794V17.543Z" fill="white"/>
</svg>
