<?xml version="1.0" standalone="no"?>
<!DOCTYPE svg PUBLIC "-//W3C//DTD SVG 20010904//EN"
 "http://www.w3.org/TR/2001/REC-SVG-20010904/DTD/svg10.dtd">
<svg version="1.0" xmlns="http://www.w3.org/2000/svg"
 width="992.000000pt" height="1056.000000pt" viewBox="0 0 992.000000 1056.000000"
 preserveAspectRatio="xMidYMid meet">

<g transform="translate(0.000000,1056.000000) scale(0.100000,-0.100000)"
fill="#000000" stroke="none">
<path d="M4770 10089 c-672 -23 -1296 -180 -1905 -479 -501 -246 -906 -539
-1300 -941 -390 -398 -655 -769 -899 -1259 -264 -531 -413 -1048 -483 -1670
-21 -192 -24 -749 -5 -940 63 -626 215 -1173 476 -1715 408 -846 1051 -1550
1863 -2038 609 -366 1345 -600 2065 -658 196 -15 738 -7 918 15 1296 155 2472
829 3270 1876 496 652 835 1484 939 2305 35 281 44 452 38 765 -5 295 -18 446
-57 689 -116 715 -392 1393 -811 1992 -319 455 -670 818 -1100 1136 -747 554
-1695 892 -2574 919 -93 2 -186 6 -205 7 -19 1 -123 -1 -230 -4z m705 -243
c1013 -127 1922 -557 2627 -1244 403 -394 684 -774 929 -1257 336 -666 499
-1358 499 -2119 0 -595 -107 -1157 -327 -1716 -467 -1192 -1397 -2125 -2583
-2593 -438 -173 -860 -270 -1334 -308 -190 -15 -642 -6 -826 16 -885 106
-1668 433 -2358 984 -168 134 -485 442 -614 596 -977 1169 -1331 2697 -967
4175 120 486 349 1010 622 1420 283 426 642 817 1015 1108 706 548 1541 875
2427 951 170 14 736 6 890 -13z"/>
<path d="M2293 7364 c-45 -23 -69 -76 -54 -124 19 -65 -92 -8 1167 -600 491
-232 731 -340 753 -340 48 0 101 55 101 104 0 65 -22 92 -113 135 -45 21 -188
89 -317 151 -259 124 -796 377 -1190 562 -140 66 -268 122 -285 124 -16 3 -44
-3 -62 -12z"/>
<path d="M7540 7373 c-46 -17 -1583 -739 -1755 -825 -44 -22 -90 -49 -102 -61
-67 -61 -12 -187 82 -187 15 0 275 117 578 261 304 143 720 340 926 437 398
188 411 197 411 265 0 73 -76 133 -140 110z"/>
<path d="M3024 6595 c-443 -96 -705 -565 -558 -997 36 -106 98 -203 184 -288
160 -159 348 -228 585 -217 281 13 513 165 642 421 54 107 75 202 75 336 0
139 -22 234 -82 349 -103 199 -276 335 -494 391 -93 24 -256 26 -352 5z m425
-260 c73 -37 113 -126 92 -203 -29 -112 -142 -162 -248 -111 -120 58 -125 239
-9 310 38 23 125 25 165 4z"/>
<path d="M6555 6594 c-151 -36 -262 -99 -376 -214 -71 -71 -94 -103 -133 -181
-57 -118 -76 -187 -83 -314 -13 -223 65 -423 224 -576 154 -149 327 -219 540
-219 350 1 645 229 739 571 25 89 25 289 0 378 -78 285 -300 496 -584 556 -85
18 -249 18 -327 -1z m440 -267 c76 -42 106 -148 65 -231 -52 -106 -202 -128
-279 -41 -76 87 -59 207 38 272 46 31 121 31 176 0z"/>
<path d="M4756 3909 c-412 -47 -807 -242 -1086 -535 -148 -156 -200 -230 -200
-288 0 -53 17 -85 59 -113 66 -44 134 -23 197 62 105 141 242 272 375 361 682
453 1567 307 2076 -343 52 -67 72 -85 105 -95 90 -27 174 41 165 134 -5 53
-41 107 -162 237 -300 325 -670 519 -1100 576 -117 16 -315 18 -429 4z"/>
</g>
</svg>
