<?xml version="1.0" standalone="no"?>
<!DOCTYPE svg PUBLIC "-//W3C//DTD SVG 20010904//EN"
 "http://www.w3.org/TR/2001/REC-SVG-20010904/DTD/svg10.dtd">
<svg version="1.0" xmlns="http://www.w3.org/2000/svg"
 width="992.000000pt" height="1056.000000pt" viewBox="0 0 992.000000 1056.000000"
 preserveAspectRatio="xMidYMid meet">

<g transform="translate(0.000000,1056.000000) scale(0.100000,-0.100000)"
fill="#000000" stroke="none">
<path d="M4711 10019 c-837 -51 -1626 -320 -2331 -794 -595 -400 -1133 -980
-1485 -1600 -728 -1280 -834 -2879 -283 -4260 74 -185 234 -512 325 -665 288
-482 683 -938 1102 -1274 310 -248 523 -385 871 -560 484 -245 973 -390 1550
-461 176 -22 656 -31 861 -16 781 58 1525 313 2214 759 410 265 886 708 1193
1110 461 603 786 1364 911 2132 114 699 84 1425 -85 2070 -322 1224 -1092
2251 -2184 2910 -146 88 -465 245 -647 319 -358 144 -692 233 -1088 290 -277
40 -661 57 -924 40z m717 -244 c442 -46 903 -164 1307 -337 1296 -554 2271
-1706 2613 -3088 197 -795 187 -1581 -29 -2384 -68 -252 -176 -538 -303 -801
-235 -487 -514 -875 -902 -1256 -599 -587 -1311 -987 -2109 -1184 -351 -87
-624 -118 -1025 -119 -358 0 -544 18 -896 89 -1194 241 -2287 1017 -2924 2075
-464 771 -702 1667 -676 2550 22 808 237 1565 634 2235 684 1156 1826 1954
3117 2179 141 24 395 53 535 60 139 7 510 -4 658 -19z"/>
<path d="M2803 7179 c-90 -13 -133 -30 -157 -62 -27 -37 -27 -97 0 -134 32
-43 71 -52 162 -37 93 16 303 18 392 4 89 -14 240 -52 240 -61 0 -4 -13 -17
-29 -29 -43 -30 -124 -157 -160 -248 -143 -371 -83 -906 126 -1133 65 -70 103
-94 165 -108 225 -51 422 236 459 663 17 199 -15 443 -76 590 l-16 38 28 -20
c15 -11 63 -51 106 -89 130 -112 137 -117 172 -117 68 0 115 48 115 116 -1 47
-15 68 -95 138 -296 263 -633 428 -985 485 -104 16 -344 18 -447 4z"/>
<path d="M6786 7175 c-355 -58 -686 -221 -984 -484 -73 -64 -92 -95 -92 -146
0 -70 64 -121 135 -107 15 2 55 30 89 61 87 80 166 144 171 139 3 -3 -4 -31
-15 -64 -77 -224 -87 -527 -24 -773 83 -329 293 -508 482 -412 69 35 139 117
193 226 188 380 142 962 -97 1213 -34 35 -56 65 -50 67 173 59 464 82 640 50
66 -11 85 -12 110 -1 51 22 71 52 71 107 0 102 -70 128 -360 134 -127 3 -206
0 -269 -10z"/>
<path d="M6369 4161 c-36 -36 -39 -92 -9 -151 11 -22 20 -42 20 -45 0 -3 -597
-5 -1326 -5 l-1326 0 -34 -34 c-39 -39 -45 -86 -18 -137 32 -62 -41 -59 1394
-59 968 0 1310 -3 1310 -11 0 -7 -10 -27 -22 -47 -32 -53 -30 -113 6 -151 62
-65 145 -47 195 41 78 135 96 297 47 441 -47 138 -89 187 -164 187 -35 0 -49
-6 -73 -29z"/>
</g>
</svg>
