<?xml version="1.0" standalone="no"?>
<!DOCTYPE svg PUBLIC "-//W3C//DTD SVG 20010904//EN"
 "http://www.w3.org/TR/2001/REC-SVG-20010904/DTD/svg10.dtd">
<svg version="1.0" xmlns="http://www.w3.org/2000/svg"
 width="992.000000pt" height="1056.000000pt" viewBox="0 0 992.000000 1056.000000"
 preserveAspectRatio="xMidYMid meet">

<g transform="translate(0.000000,1056.000000) scale(0.100000,-0.100000)"
fill="#000000" stroke="none">
<path d="M4695 9984 c-480 -47 -690 -85 -1050 -194 -239 -72 -493 -175 -750
-305 -469 -237 -821 -492 -1206 -875 -421 -419 -678 -776 -925 -1285 -270
-558 -427 -1142 -474 -1765 -13 -173 -13 -566 0 -740 48 -639 195 -1213 462
-1795 347 -759 1000 -1502 1733 -1972 845 -541 1787 -785 2795 -723 336 21
624 71 950 165 230 67 318 98 529 187 447 189 817 413 1186 719 125 104 467
440 589 579 279 317 479 617 676 1015 204 411 370 941 439 1405 63 416 69
1032 15 1455 -100 782 -434 1608 -902 2230 -549 729 -1242 1261 -2062 1584
-382 151 -745 241 -1190 296 -128 16 -707 29 -815 19z m738 -239 c1353 -144
2517 -847 3277 -1980 397 -591 663 -1314 744 -2025 128 -1116 -132 -2231 -732
-3149 -156 -238 -339 -460 -576 -697 -207 -206 -342 -324 -540 -471 -823 -611
-1823 -921 -2819 -873 -660 32 -1183 169 -1772 465 -431 216 -770 457 -1119
795 -520 504 -894 1094 -1136 1795 -118 342 -187 649 -237 1055 -26 209 -25
831 0 1040 71 572 214 1065 443 1531 100 204 152 294 269 474 334 513 783 965
1300 1310 656 437 1401 691 2190 745 170 11 533 4 708 -15z"/>
<path d="M3104 6920 c-170 -17 -396 -89 -434 -137 -30 -38 -27 -103 6 -142 39
-47 80 -50 168 -13 358 150 848 56 1153 -221 81 -74 114 -91 153 -82 37 9 79
54 86 91 9 51 -20 97 -110 172 -149 126 -293 208 -466 266 -169 56 -391 82
-556 66z"/>
<path d="M6575 6909 c-142 -21 -346 -94 -470 -166 -143 -83 -282 -200 -310
-259 -35 -74 17 -154 100 -154 38 0 49 6 106 61 303 289 771 387 1156 243 111
-42 147 -40 187 7 33 39 36 104 6 142 -23 29 -138 77 -263 108 -65 17 -121 22
-267 24 -102 2 -212 0 -245 -6z"/>
<path d="M3516 6349 c-81 -19 -170 -71 -239 -140 -166 -166 -204 -417 -94
-622 81 -154 228 -255 399 -277 240 -30 470 106 558 330 115 291 -55 626 -355
705 -64 16 -206 19 -269 4z"/>
<path d="M6231 6344 c-88 -23 -166 -72 -234 -143 -100 -107 -147 -225 -147
-371 0 -224 155 -434 368 -500 81 -25 225 -27 303 -4 177 52 311 186 363 363
18 62 21 203 5 271 -40 174 -192 332 -368 384 -68 20 -216 20 -290 0z"/>
<path d="M4760 3869 c-287 -33 -613 -147 -841 -294 -171 -110 -366 -290 -389
-359 -24 -74 27 -146 102 -146 50 0 82 19 132 79 121 144 355 298 586 386 253
97 599 138 870 104 408 -50 783 -234 1005 -491 75 -88 122 -106 185 -73 52 27
75 102 47 152 -27 49 -134 158 -235 239 -278 223 -607 357 -992 404 -99 12
-362 11 -470 -1z"/>
</g>
</svg>
