<?xml version="1.0" standalone="no"?>
<!DOCTYPE svg PUBLIC "-//W3C//DTD SVG 20010904//EN"
 "http://www.w3.org/TR/2001/REC-SVG-20010904/DTD/svg10.dtd">
<svg version="1.0" xmlns="http://www.w3.org/2000/svg"
 width="992.000000pt" height="1056.000000pt" viewBox="0 0 992.000000 1056.000000"
 preserveAspectRatio="xMidYMid meet">

<g transform="translate(0.000000,1056.000000) scale(0.100000,-0.100000)"
fill="#000000" stroke="none">
<path d="M4845 9983 c-33 -1 -125 -7 -205 -13 -1066 -78 -2101 -553 -2889
-1325 -741 -725 -1204 -1585 -1390 -2581 -90 -482 -106 -1020 -45 -1509 79
-635 278 -1252 573 -1780 373 -665 942 -1278 1558 -1678 173 -113 260 -162
495 -277 492 -244 995 -393 1540 -457 183 -22 801 -25 983 -5 1069 116 2055
587 2820 1347 642 637 1041 1331 1289 2240 48 178 82 354 111 580 126 993 -16
1917 -424 2760 -220 455 -487 842 -853 1235 -547 588 -1325 1062 -2117 1290
-344 98 -667 151 -1051 170 -186 9 -259 10 -395 3z m705 -252 c827 -111 1601
-434 2213 -924 912 -730 1504 -1734 1691 -2867 39 -239 47 -332 53 -650 4
-226 2 -338 -11 -480 -56 -640 -210 -1189 -490 -1744 -242 -480 -504 -837
-902 -1228 -710 -698 -1642 -1141 -2634 -1253 -194 -22 -554 -30 -745 -16
-610 44 -1120 180 -1672 446 -774 373 -1436 983 -1890 1740 -371 618 -594
1324 -654 2069 -17 218 -6 695 20 896 92 685 291 1269 621 1820 184 306 430
620 695 885 693 695 1550 1137 2490 1283 113 18 180 26 390 46 22 2 182 2 355
1 248 -3 348 -8 470 -24z"/>
<path d="M3745 7835 c-16 -7 -62 -40 -100 -73 -98 -84 -246 -181 -383 -250
-153 -78 -207 -100 -409 -162 -175 -54 -233 -83 -294 -147 -56 -60 -69 -84
-69 -133 0 -55 17 -82 66 -105 57 -27 93 -15 153 55 l52 60 132 40 c302 93
494 180 705 320 140 92 276 216 292 265 27 83 -65 166 -145 130z"/>
<path d="M6262 7834 c-44 -22 -66 -66 -59 -117 7 -49 70 -117 202 -216 238
-178 465 -285 840 -396 85 -25 93 -30 147 -88 51 -55 61 -62 96 -62 98 0 150
87 105 173 -25 46 -101 120 -148 144 -22 12 -134 52 -249 90 -308 101 -540
223 -729 385 -38 32 -79 66 -90 75 -33 26 -77 31 -115 12z"/>
<path d="M3420 6883 c-406 -39 -760 -323 -883 -708 -14 -44 -32 -107 -38 -140
-18 -85 -16 -314 4 -400 70 -308 259 -561 526 -703 355 -189 800 -156 1110 82
138 106 242 234 316 387 249 516 23 1145 -499 1390 -163 76 -358 110 -536 92z
m296 -213 c247 -59 444 -219 559 -454 65 -130 86 -224 87 -371 0 -139 -21
-236 -77 -352 -110 -234 -323 -408 -573 -470 -100 -25 -303 -22 -406 6 -299
80 -527 308 -607 607 -29 107 -31 286 -6 399 22 95 89 242 144 316 117 158
308 282 496 323 96 22 286 20 383 -4z"/>
<path d="M3622 6179 c-118 -20 -237 -113 -288 -224 -151 -329 172 -672 511
-544 198 75 302 297 234 501 -62 190 -255 302 -457 267z"/>
<path d="M6426 6880 c-416 -66 -739 -356 -853 -765 -26 -91 -28 -115 -28 -270
0 -192 14 -262 83 -422 49 -115 107 -199 206 -302 169 -174 356 -269 594 -301
363 -49 723 94 952 378 289 359 305 863 39 1247 -70 101 -216 239 -314 294
-90 52 -231 107 -324 127 -84 18 -279 26 -355 14z m325 -206 c316 -72 555
-303 640 -619 30 -110 30 -307 1 -416 -44 -162 -117 -284 -245 -405 -370 -352
-962 -295 -1263 123 -211 293 -205 714 14 1004 118 155 302 274 487 314 86 19
281 18 366 -1z"/>
<path d="M6303 6175 c-125 -28 -222 -105 -280 -223 -26 -52 -28 -67 -28 -167
0 -104 2 -114 32 -176 96 -195 345 -282 540 -188 71 34 149 112 185 186 43 87
51 216 20 305 -69 197 -268 308 -469 263z"/>
<path d="M4927 4300 c-446 -42 -834 -272 -1084 -645 -106 -158 -192 -384 -201
-525 -4 -73 -1 -93 18 -137 30 -71 102 -137 171 -157 72 -22 102 -20 184 10
459 167 712 230 980 241 294 12 525 -39 1080 -237 72 -26 100 -31 141 -27 135
14 243 134 244 272 0 119 -79 348 -179 517 -97 164 -268 342 -436 455 -258
173 -607 262 -918 233z"/>
</g>
</svg>
