<?xml version="1.0" standalone="no"?>
<!DOCTYPE svg PUBLIC "-//W3C//DTD SVG 20010904//EN"
 "http://www.w3.org/TR/2001/REC-SVG-20010904/DTD/svg10.dtd">
<svg version="1.0" xmlns="http://www.w3.org/2000/svg"
 width="992.000000pt" height="1056.000000pt" viewBox="0 0 992.000000 1056.000000"
 preserveAspectRatio="xMidYMid meet">

<g transform="translate(0.000000,1056.000000) scale(0.100000,-0.100000)"
fill="#000000" stroke="none">
<path d="M4731 9999 c-645 -37 -1231 -192 -1806 -478 -488 -242 -848 -502
-1245 -900 -419 -420 -685 -788 -930 -1286 -195 -397 -313 -743 -400 -1175
-222 -1099 -68 -2218 445 -3235 160 -318 346 -597 596 -895 426 -507 989 -946
1564 -1220 689 -329 1382 -477 2135 -457 275 8 391 18 630 58 531 87 1060 277
1555 557 129 73 441 283 560 378 318 252 640 578 890 899 462 593 801 1403
920 2197 62 410 69 918 19 1358 -76 673 -321 1374 -686 1967 -281 456 -724
943 -1158 1272 -648 492 -1361 795 -2141 911 -312 46 -677 65 -948 49z m514
-229 c968 -65 1889 -434 2605 -1044 139 -119 370 -346 484 -476 424 -483 719
-999 914 -1600 234 -719 292 -1507 166 -2250 -124 -730 -426 -1430 -872 -2023
-284 -378 -687 -758 -1097 -1033 -977 -658 -2092 -900 -3241 -704 -609 104
-1267 380 -1787 749 -274 194 -576 467 -800 721 -866 985 -1275 2336 -1106
3660 113 892 458 1680 1050 2395 121 146 465 485 609 601 304 243 530 388 845
543 237 118 378 176 605 252 513 170 1090 244 1625 209z"/>
<path d="M3435 7270 c-135 -69 -243 -267 -287 -524 -17 -102 -19 -148 -15
-291 4 -146 9 -186 35 -288 56 -214 143 -353 262 -415 59 -31 71 -34 127 -29
77 6 133 37 197 108 143 159 227 502 196 804 -29 290 -125 511 -263 609 -55
38 -63 41 -135 44 -62 2 -85 -2 -117 -18z"/>
<path d="M6313 7270 c-92 -41 -185 -167 -239 -321 -47 -135 -66 -258 -67 -434
-1 -182 16 -296 64 -439 40 -120 80 -188 153 -262 127 -127 265 -125 393 5 86
87 161 258 194 441 20 111 18 403 -4 511 -50 250 -152 430 -279 493 -65 33
-152 35 -215 6z"/>
<path d="M2737 4880 c-48 -14 -98 -60 -120 -109 -17 -40 -19 -58 -13 -156 23
-411 181 -829 445 -1182 336 -449 821 -776 1346 -908 213 -54 343 -69 580 -69
234 0 356 14 565 65 671 165 1264 640 1575 1259 144 288 227 606 229 876 1
110 1 113 -30 150 -16 22 -50 49 -74 62 l-44 22 -2216 -1 c-1218 0 -2228 -5
-2243 -9z"/>
</g>
</svg>
