<?xml version="1.0" standalone="no"?>
<!DOCTYPE svg PUBLIC "-//W3C//DTD SVG 20010904//EN"
 "http://www.w3.org/TR/2001/REC-SVG-20010904/DTD/svg10.dtd">
<svg version="1.0" xmlns="http://www.w3.org/2000/svg"
 width="1024.000000pt" height="1024.000000pt" viewBox="0 0 1024.000000 1024.000000"
 preserveAspectRatio="xMidYMid meet">

<g transform="translate(0.000000,1024.000000) scale(0.100000,-0.100000)"
fill="#000000" stroke="none">
<path d="M4930 9974 c-1000 -47 -1934 -375 -2705 -951 -711 -530 -1259 -1227
-1600 -2034 -76 -179 -184 -506 -234 -707 -193 -772 -194 -1624 -5 -2375 223
-887 647 -1639 1279 -2272 370 -371 762 -655 1226 -890 284 -144 530 -242 823
-330 429 -128 800 -184 1275 -192 659 -12 1169 72 1776 292 840 306 1608 868
2170 1590 446 572 776 1312 909 2036 66 360 91 671 83 1049 -6 284 -13 373
-48 620 -125 881 -512 1751 -1083 2434 -775 927 -1805 1507 -2981 1680 -242
36 -671 60 -885 50z m617 -249 c573 -55 1118 -211 1618 -465 642 -325 1161
-762 1606 -1355 841 -1118 1138 -2589 799 -3961 -98 -398 -271 -833 -466
-1175 -191 -336 -458 -682 -744 -969 -1258 -1256 -3106 -1681 -4784 -1100
-1042 361 -1939 1100 -2486 2050 -317 550 -516 1160 -597 1830 -25 205 -25
770 0 990 89 784 334 1469 752 2095 725 1087 1840 1810 3115 2019 403 66 784
79 1187 41z"/>
<path d="M3850 7583 c-8 -3 -51 -37 -95 -76 -232 -202 -541 -376 -842 -475
-108 -36 -202 -58 -385 -93 -44 -8 -63 -17 -83 -40 -52 -63 -19 -170 58 -184
44 -8 237 27 387 70 384 110 791 336 1043 578 64 61 67 67 67 111 0 61 -37
105 -95 111 -22 3 -47 2 -55 -2z"/>
<path d="M6284 7571 c-36 -22 -59 -76 -49 -119 11 -52 181 -202 368 -326 278
-183 592 -316 896 -380 178 -38 230 -41 267 -17 43 26 59 75 42 127 -17 52
-61 80 -140 88 -98 11 -316 71 -445 121 -251 98 -528 260 -700 408 -149 128
-174 138 -239 98z"/>
<path d="M3432 6539 c-249 -42 -469 -246 -532 -495 -40 -156 -19 -331 57 -477
45 -87 172 -219 253 -264 219 -123 501 -116 705 17 342 223 407 706 134 1003
-160 176 -386 254 -617 216z m338 -244 c79 -41 113 -151 71 -232 -54 -107
-206 -121 -278 -26 -39 51 -44 144 -11 193 51 74 145 103 218 65z"/>
<path d="M6585 6544 c-160 -34 -274 -93 -375 -194 -129 -128 -190 -280 -190
-470 0 -314 195 -567 500 -646 86 -23 244 -23 330 0 235 62 423 246 486 477
28 102 24 263 -9 364 -95 289 -358 479 -655 474 -37 -1 -76 -3 -87 -5z m336
-257 c18 -12 44 -38 57 -57 20 -30 23 -44 20 -97 -5 -75 -26 -109 -88 -140
-56 -29 -96 -29 -151 0 -154 82 -98 317 76 317 38 0 61 -6 86 -23z"/>
<path d="M4945 4044 c-107 -12 -274 -47 -372 -79 -140 -46 -343 -147 -463
-232 -132 -94 -360 -323 -438 -440 -91 -138 -146 -253 -137 -291 15 -72 99
-111 164 -76 27 15 47 41 86 112 72 133 153 238 275 356 214 206 453 333 754
398 147 32 455 32 602 0 451 -98 829 -375 1038 -761 39 -71 56 -93 84 -107 48
-23 100 -13 135 26 39 44 36 88 -14 180 -248 456 -682 779 -1192 886 -98 20
-157 26 -302 29 -99 1 -198 1 -220 -1z"/>
</g>
</svg>
