<?xml version="1.0" standalone="no"?>
<!DOCTYPE svg PUBLIC "-//W3C//DTD SVG 20010904//EN"
 "http://www.w3.org/TR/2001/REC-SVG-20010904/DTD/svg10.dtd">
<svg version="1.0" xmlns="http://www.w3.org/2000/svg"
 width="992.000000pt" height="1056.000000pt" viewBox="0 0 992.000000 1056.000000"
 preserveAspectRatio="xMidYMid meet">

<g transform="translate(0.000000,1056.000000) scale(0.100000,-0.100000)"
fill="#000000" stroke="none">
<path d="M4610 9169 c-703 -50 -1351 -269 -1925 -652 -979 -653 -1605 -1670
-1752 -2847 -21 -172 -24 -708 -4 -880 91 -806 399 -1536 904 -2150 111 -135
410 -426 557 -544 599 -479 1296 -769 2055 -857 252 -29 669 -26 920 6 987
126 1859 594 2526 1355 300 342 572 811 730 1255 166 470 239 937 226 1455
-10 416 -70 770 -192 1136 -249 745 -684 1370 -1296 1863 -768 619 -1762 930
-2749 860z m620 -179 c664 -60 1316 -303 1870 -700 760 -544 1297 -1364 1495
-2285 79 -365 105 -853 65 -1200 -121 -1045 -616 -1947 -1426 -2597 -649 -521
-1497 -817 -2339 -818 -1139 0 -2202 495 -2927 1364 -488 584 -780 1281 -869
2076 -17 150 -17 590 0 750 93 889 474 1692 1096 2314 532 533 1204 891 1938
1035 142 28 331 56 437 64 107 8 555 6 660 -3z"/>
<path d="M3430 7673 c-223 -21 -424 -93 -590 -211 -107 -76 -160 -133 -160
-171 0 -45 16 -70 55 -87 43 -18 64 -10 134 50 170 147 358 223 573 233 146 7
245 -7 359 -53 48 -19 98 -34 111 -34 63 0 108 83 73 136 -36 55 -223 117
-404 134 -58 5 -108 9 -111 8 -3 0 -21 -3 -40 -5z"/>
<path d="M6120 7664 c-159 -31 -299 -87 -318 -129 -19 -42 -14 -74 17 -106 36
-36 62 -36 136 -4 220 98 526 84 760 -33 69 -34 161 -98 215 -148 25 -23 57
-45 72 -49 57 -15 119 51 104 111 -14 56 -184 186 -339 259 -158 75 -254 96
-452 100 -93 2 -181 1 -195 -1z"/>
<path d="M3243 6776 c-370 -71 -664 -345 -763 -711 -27 -100 -37 -273 -21
-375 48 -312 247 -580 535 -720 464 -226 1019 -43 1257 413 86 165 115 298
106 489 -11 251 -92 439 -271 626 -126 131 -273 218 -446 262 -108 28 -295 35
-397 16z m377 -186 c304 -86 534 -360 569 -677 42 -382 -200 -738 -575 -845
-111 -32 -295 -31 -408 1 -151 42 -270 114 -374 226 -210 224 -267 534 -153
831 98 254 337 443 616 488 66 10 251 -3 325 -24z"/>
<path d="M3480 6219 c-72 -14 -185 -75 -240 -129 -28 -29 -64 -81 -86 -124
-31 -64 -37 -87 -41 -163 -9 -147 35 -259 137 -357 229 -219 593 -157 735 124
60 117 59 268 -2 398 -32 68 -127 170 -191 205 -90 49 -207 66 -312 46z m271
-225 c62 -32 74 -126 23 -178 -55 -54 -151 -39 -179 28 -19 45 -19 70 0 106
29 55 98 75 156 44z"/>
<path d="M6219 6775 c-188 -36 -361 -126 -495 -260 -185 -183 -279 -395 -291
-650 -4 -96 -1 -139 15 -215 79 -383 352 -663 737 -756 104 -26 325 -23 427 4
360 97 623 360 710 708 33 136 31 325 -5 459 -95 345 -354 606 -692 695 -105
28 -300 35 -406 15z m313 -169 c306 -59 546 -286 623 -591 24 -94 24 -275 1
-370 -23 -92 -93 -236 -150 -307 -67 -83 -168 -163 -271 -213 -132 -63 -205
-79 -360 -79 -119 1 -138 3 -225 33 -119 40 -212 95 -296 174 -235 219 -311
526 -208 838 67 204 246 392 455 476 129 52 287 66 431 39z"/>
<path d="M6125 6216 c-120 -30 -216 -96 -276 -189 -186 -287 -25 -656 310
-707 147 -23 299 29 403 138 63 66 91 116 113 199 42 160 -5 323 -126 438
-116 111 -279 157 -424 121z m286 -229 c58 -39 65 -122 14 -172 -44 -45 -101
-45 -152 -1 -24 21 -28 31 -28 79 0 41 5 61 20 77 40 45 95 51 146 17z"/>
<path d="M4870 4379 c-167 -33 -344 -204 -428 -415 -58 -144 -74 -224 -79
-401 -4 -128 -2 -182 12 -260 71 -398 304 -663 584 -663 308 0 556 315 601
765 42 407 -136 814 -411 940 -93 42 -182 53 -279 34z"/>
</g>
</svg>
