<svg width="447" height="65" viewBox="0 0 447 65" fill="none" xmlns="http://www.w3.org/2000/svg">
<rect width="447" height="65" rx="11" fill="#AAD786"/>
<rect width="447" height="65" rx="11" stroke="#D9D9D9"/>
<path d="M189.724 31.9004V33.4648H183.589V36.207H181.655V33.4648H175.204V31.9004H189.724ZM188.124 37.666V39.248H176.962V34.8711H178.896V37.666H188.124ZM179.036 24.1836V25.9766H185.892V24.1836H187.825V30.6523H177.103V24.1836H179.036ZM179.036 29.1055H185.892V27.4355H179.036V29.1055ZM196.544 26.1875C196.544 28.2266 197.827 30.1777 200.271 30.9688L199.216 32.5332C197.493 31.9268 196.263 30.7227 195.595 29.1934C194.883 30.8633 193.591 32.1729 191.763 32.832L190.708 31.2676C193.292 30.4062 194.575 28.332 194.575 26.0645V24.5H196.544V26.1875ZM204.085 33.8867V39.5645H202.134V35.4336H193.257V33.8867H204.085ZM204.085 23.6738V33.1133H202.134V28.3672H198.97V26.7676H202.134V23.6738H204.085ZM216.618 27.4883C216.601 30.4062 218.13 33.3242 220.714 34.4316L219.554 35.9961C217.726 35.1523 216.381 33.4648 215.651 31.3906C214.922 33.6318 213.56 35.46 211.626 36.3652L210.431 34.7305C213.085 33.5879 214.632 30.5469 214.632 27.4883V24.957H216.618V27.4883ZM223.825 23.6738V39.582H221.856V23.6738H223.825ZM231.858 26.4336C231.858 28.3848 233.124 30.3184 235.62 31.1445L234.636 32.6562C232.86 32.0674 231.595 30.8721 230.909 29.3867C230.197 31.0127 228.879 32.3047 227.024 32.9375L225.987 31.4258C228.554 30.582 229.89 28.5254 229.89 26.4336V26.2402H226.532V24.6758H235.163V26.2402H231.858V26.4336ZM238.696 23.6738V27.6465H240.911V29.2812H238.696V33.2539H236.745V23.6738H238.696ZM238.696 33.9922V39.5645H236.745V35.5566H228.114V33.9922H238.696ZM254.165 23.6738V30.002H256.608V31.6191H254.165V39.5645H252.231V23.6738H254.165ZM251.001 26.1172V27.6816H241.632V26.1172H245.394V23.9023H247.345V26.1172H251.001ZM246.378 28.7188C248.663 28.7188 250.368 30.2656 250.368 32.4629C250.368 34.6602 248.663 36.1895 246.378 36.1895C244.058 36.1895 242.353 34.6602 242.37 32.4629C242.353 30.2656 244.058 28.7188 246.378 28.7188ZM246.378 30.3184C245.13 30.3184 244.233 31.1621 244.233 32.4629C244.233 33.7637 245.13 34.5898 246.378 34.5723C247.591 34.5898 248.487 33.7637 248.505 32.4629C248.487 31.1621 247.591 30.3184 246.378 30.3184ZM270.548 23.6738V39.5645H268.579V23.6738H270.548ZM265.802 25.3613C265.802 30.0898 263.974 34.1152 258.401 36.752L257.382 35.1875C261.539 33.21 263.473 30.5205 263.815 26.9082H258.19V25.3613H265.802Z" fill="white"/>
</svg>
