<svg width="200" height="49" viewBox="0 0 200 49" fill="none" xmlns="http://www.w3.org/2000/svg">
<rect width="200" height="49" rx="11" fill="#AAD786"/>
<rect width="200" height="49" rx="11" stroke="#D9D9D9"/>
<path d="M80.6878 17.9972C80.6878 18.6644 80.924 19.3149 81.3964 19.9489C81.8688 20.5787 82.5317 21.1195 83.3853 21.5711C84.2431 22.0186 85.2189 22.3128 86.3128 22.4537L85.5421 24.0325C84.6512 23.8999 83.8246 23.672 83.0621 23.3488C82.2997 23.0214 81.6284 22.6174 81.0483 22.1367C80.4724 21.6519 80.0124 21.1112 79.6685 20.5145C79.3204 21.1112 78.8563 21.6519 78.2762 22.1367C77.7003 22.6174 77.0331 23.0214 76.2748 23.3488C75.5166 23.672 74.6961 23.8999 73.8135 24.0325L73.0366 22.4537C74.1264 22.3128 75.096 22.0186 75.9454 21.5711C76.799 21.1195 77.4599 20.5787 77.9282 19.9489C78.4005 19.3191 78.6367 18.6685 78.6367 17.9972V17.183H80.6878V17.9972ZM72.415 25.4123H86.8909V27.0221H80.5822V32.5539H78.6491V27.0221H72.415V25.4123ZM101.279 26.1209H99.3273V22.2362H96.6112V20.6388H99.3273V16.6796H101.279V26.1209ZM87.922 24.5235C88.7465 24.2417 89.451 23.8356 90.0352 23.3052C90.6236 22.7707 91.067 22.1657 91.3653 21.4903C91.6678 20.8149 91.8191 20.1209 91.8191 19.4081V19.2901H88.5062V17.7113H97.096V19.2901H93.808V19.3895C93.808 20.0483 93.951 20.6885 94.2369 21.3101C94.5228 21.9275 94.9454 22.4827 95.5048 22.9758C96.0684 23.4648 96.7479 23.8419 97.5435 24.107L96.5677 25.6547C95.7058 25.3646 94.9599 24.9337 94.3301 24.3619C93.7003 23.7901 93.2072 23.1188 92.8508 22.3481C92.4945 23.2141 91.9848 23.9703 91.3218 24.6167C90.6588 25.2631 89.8653 25.7479 88.9413 26.0711L87.922 24.5235ZM90.4952 29.5394C90.4952 28.9095 90.7106 28.3688 91.1416 27.9171C91.5766 27.4613 92.2003 27.1133 93.0124 26.8729C93.8246 26.6326 94.788 26.5124 95.9026 26.5124C97.0214 26.5124 97.9869 26.6326 98.799 26.8729C99.6112 27.1133 100.235 27.4613 100.67 27.9171C101.105 28.3688 101.323 28.9095 101.323 29.5394C101.323 30.1692 101.105 30.7099 100.67 31.1616C100.235 31.6174 99.6112 31.9655 98.799 32.2058C97.9869 32.4461 97.0214 32.5663 95.9026 32.5663C94.788 32.5663 93.8246 32.4461 93.0124 32.2058C92.2003 31.9655 91.5766 31.6174 91.1416 31.1616C90.7106 30.7099 90.4952 30.1692 90.4952 29.5394ZM92.4406 29.5394C92.4365 30.0325 92.7348 30.4095 93.3356 30.6706C93.9365 30.9316 94.7921 31.058 95.9026 31.0497C97.0131 31.058 97.8688 30.9316 98.4696 30.6706C99.0746 30.4095 99.3791 30.0325 99.3833 29.5394C99.3791 29.0463 99.0766 28.6692 98.4758 28.4081C97.875 28.1471 97.0173 28.0166 95.9026 28.0166C94.788 28.0166 93.9302 28.1471 93.3294 28.4081C92.7327 28.6692 92.4365 29.0463 92.4406 29.5394ZM115.972 23.0069H118.421V24.6167H115.972V32.5539H114.039V16.6796H115.972V23.0069ZM103.441 19.1098H107.195V16.9033H109.147V19.1098H112.814V20.6885H103.441V19.1098ZM104.175 25.4558C104.171 24.7348 104.34 24.0905 104.684 23.5228C105.028 22.9551 105.505 22.5117 106.114 22.1927C106.727 21.8736 107.417 21.7141 108.184 21.7141C108.938 21.7141 109.617 21.8736 110.222 22.1927C110.831 22.5117 111.308 22.9551 111.652 23.5228C112 24.0905 112.176 24.7348 112.18 25.4558C112.176 26.1768 112 26.8211 111.652 27.3888C111.308 27.9565 110.831 28.3999 110.222 28.7189C109.617 29.0338 108.938 29.1913 108.184 29.1913C107.417 29.1913 106.727 29.0338 106.114 28.7189C105.505 28.3999 105.028 27.9565 104.684 27.3888C104.34 26.8211 104.171 26.1768 104.175 25.4558ZM106.046 25.4558C106.041 25.8826 106.131 26.2576 106.313 26.5808C106.495 26.904 106.748 27.1526 107.071 27.3267C107.398 27.4965 107.769 27.5794 108.184 27.5753C108.59 27.5794 108.952 27.4965 109.271 27.3267C109.595 27.1526 109.847 26.904 110.03 26.5808C110.212 26.2576 110.305 25.8826 110.309 25.4558C110.305 25.0331 110.212 24.6602 110.03 24.337C109.847 24.0138 109.595 23.7631 109.271 23.5849C108.952 23.4068 108.59 23.3177 108.184 23.3177C107.773 23.3177 107.405 23.4068 107.077 23.5849C106.75 23.7631 106.495 24.0138 106.313 24.337C106.131 24.6602 106.041 25.0331 106.046 25.4558ZM132.349 32.5539H130.378V16.6796H132.349V32.5539ZM119.191 28.1844C120.566 27.5297 121.708 26.7942 122.615 25.9779C123.527 25.1575 124.227 24.2479 124.716 23.2493C125.205 22.2465 125.508 21.134 125.624 19.9116H119.999V18.364H127.613C127.608 20.0173 127.368 21.538 126.892 22.9261C126.419 24.3101 125.636 25.5801 124.542 26.7362C123.452 27.8923 122.01 28.8971 120.216 29.7507L119.191 28.1844Z" fill="white"/>
</svg>
