<svg width="95" height="94" viewBox="0 0 95 94" fill="none" xmlns="http://www.w3.org/2000/svg">
<path d="M43.5386 0.124183C81.6033 -2.51346 107.714 37.3839 88.565 70.5095C70.3375 102.042 23.924 101.766 6.01976 70.0492C-10.7389 40.3663 9.32943 2.49461 43.5386 0.124183Z" fill="#FD4223"/>
<path d="M80.9395 55.2801C80.1712 56.1696 78.871 56.5972 77.7446 56.7316C75.4396 57.0075 68.0676 57.0264 65.787 56.7368C60.0577 56.0076 62.0793 50.2341 61.643 46.3328C55.4304 44.6433 48.293 44.3727 41.8719 44.8657C40.4673 44.9743 34.3399 45.6053 33.5004 46.2328C33.2188 46.4431 33.2483 46.5276 33.1718 46.8138C32.8311 48.1205 33.443 51.1116 33.1875 52.6683C32.9041 54.3957 31.8646 55.7145 30.2411 56.4024C29.0469 56.9092 19.363 56.9161 17.6282 56.7334C13.8509 56.3317 12.7541 54.2474 13.0374 50.7185C13.618 43.4762 20.0322 37.4872 27.2913 37.0648C38.5396 37.07 49.7862 37.0821 61.0346 37.0821C68.6482 37.0821 73.5484 36.3063 79.0187 43.0849C81.1099 45.6777 83.394 52.4407 80.9378 55.2818L80.9395 55.2801Z" fill="white"/>
</svg>
