<svg width="447" height="65" viewBox="0 0 447 65" fill="none" xmlns="http://www.w3.org/2000/svg">
<rect width="447" height="65" rx="11" fill="#AAD786"/>
<rect width="447" height="65" rx="11" stroke="#D9D9D9"/>
<path d="M179.722 24.1836C182.13 24.1836 183.923 25.6777 183.94 27.7695C183.923 29.8789 182.13 31.3555 179.722 31.3555C177.296 31.3555 175.503 29.8789 175.503 27.7695C175.503 25.6777 177.296 24.1836 179.722 24.1836ZM179.722 25.8008C178.386 25.8008 177.401 26.5566 177.401 27.7695C177.401 29 178.386 29.7734 179.722 29.7734C181.058 29.7734 182.042 29 182.042 27.7695C182.042 26.5566 181.058 25.8008 179.722 25.8008ZM188.458 23.6738V31.707H186.489V23.6738H188.458ZM188.458 32.3926V36.541H179.862V37.8242H188.933V39.3711H177.946V35.0996H186.507V33.9219H177.911V32.3926H188.458ZM204.05 23.6738V39.5645H202.081V23.6738H204.05ZM199.304 25.3613C199.304 30.0898 197.476 34.1152 191.903 36.752L190.884 35.1875C195.041 33.21 196.975 30.5205 197.317 26.9082H191.692V25.3613H199.304ZM223.931 23.6738V39.582H221.979V30.8984H218.921V29.2988H221.979V23.6738H223.931ZM216.442 27.8926C216.442 30.6348 217.919 33.5527 220.485 34.6602L219.325 36.2246C217.479 35.3457 216.161 33.5791 215.476 31.4785C214.764 33.7197 213.419 35.6094 211.573 36.541L210.396 35.0117C212.944 33.8164 214.438 30.793 214.456 27.8926V26.8379H211.046V25.2383H219.853V26.8379H216.442V27.8926ZM231.858 26.5391C231.858 28.4902 233.124 30.3184 235.603 31.0742L234.671 32.6035C232.887 32.0498 231.621 30.916 230.927 29.4746C230.224 31.1445 228.879 32.4717 226.972 33.1133L225.987 31.5664C228.554 30.7227 229.89 28.666 229.89 26.5566V26.3633H226.532V24.7812H235.163V26.3633H231.858V26.5391ZM238.696 23.6738V27.4883H240.911V29.0879H238.696V33.1484H236.745V23.6738H238.696ZM233.528 33.5C236.815 33.5 238.837 34.6074 238.854 36.5059C238.837 38.4219 236.815 39.5469 233.528 39.5469C230.206 39.5469 228.149 38.4219 228.149 36.5059C228.149 34.6074 230.206 33.5 233.528 33.5ZM233.528 35.0293C231.349 35.0293 230.101 35.5391 230.101 36.5059C230.101 37.4902 231.349 38.0176 233.528 38.0176C235.708 38.0176 236.921 37.4902 236.921 36.5059C236.921 35.5391 235.708 35.0293 233.528 35.0293ZM254.165 23.6738V30.002H256.608V31.6191H254.165V39.5645H252.231V23.6738H254.165ZM251.001 26.1172V27.6816H241.632V26.1172H245.394V23.9023H247.345V26.1172H251.001ZM246.378 28.7188C248.663 28.7188 250.368 30.2656 250.368 32.4629C250.368 34.6602 248.663 36.1895 246.378 36.1895C244.058 36.1895 242.353 34.6602 242.37 32.4629C242.353 30.2656 244.058 28.7188 246.378 28.7188ZM246.378 30.3184C245.13 30.3184 244.233 31.1621 244.233 32.4629C244.233 33.7637 245.13 34.5898 246.378 34.5723C247.591 34.5898 248.487 33.7637 248.505 32.4629C248.487 31.1621 247.591 30.3184 246.378 30.3184ZM270.548 23.6738V39.5645H268.579V23.6738H270.548ZM265.802 25.3613C265.802 30.0898 263.974 34.1152 258.401 36.752L257.382 35.1875C261.539 33.21 263.473 30.5205 263.815 26.9082H258.19V25.3613H265.802Z" fill="white"/>
</svg>
