<svg width="445" height="60" viewBox="0 0 445 60" fill="none" xmlns="http://www.w3.org/2000/svg">
<rect width="445" height="60" rx="7" fill="#02C75A"/>
<g clip-path="url(#clip0_1012_19)">
<path d="M53.7666 31.3363L39.6776 11H28V49H40.2334V28.6605L54.3224 49H66V11H53.7666V31.3363Z" fill="white"/>
</g>
<path d="M152.619 22.9738V32.6975C154.415 32.6768 156.1 32.5594 158.04 32.1519L158.303 33.7265C156.024 34.2099 154.083 34.3066 151.915 34.2997H150.761V22.9738H152.619ZM155.672 28.4434V26.9309H159.498V21.5511H161.259V37.808H159.498V28.4434H155.672ZM163.248 38.6575V21.1575H165.009V38.6575H163.248ZM182.148 21.1575V38.692H180.284V21.1575H182.148ZM168.253 28.6091C168.253 24.8591 170.138 22.4765 172.777 22.4696C175.387 22.4765 177.293 24.8591 177.293 28.6091C177.293 32.3798 175.387 34.7624 172.777 34.7624C170.138 34.7624 168.253 32.3798 168.253 28.6091ZM170.042 28.6091C170.042 31.3854 171.161 33.0981 172.777 33.0981C174.393 33.0981 175.498 31.3854 175.498 28.6091C175.498 25.8536 174.393 24.1409 172.777 24.1271C171.161 24.1409 170.042 25.8536 170.042 28.6091ZM199.93 21.1575V38.692H198.093V29.0787H194.212V34.355H186.021V22.518H187.886V26.9724H192.402V22.518H194.212V27.5525H198.093V21.1575H199.93ZM187.886 32.8425H192.402V28.4434H187.886V32.8425ZM219.038 35.018V36.558H203.023V35.018H210.067V31.9378H204.97V26.3715H215.246V23.913H204.936V22.4006H217.076V27.8633H206.814V30.4185H217.484V31.9378H211.904V35.018H219.038ZM232.413 25.6119C232.399 28.8094 234.326 32.0276 237.04 33.2224L235.922 34.7003C233.912 33.7403 232.323 31.7721 231.502 29.3757C230.694 31.9378 229.084 34.058 226.992 35.0732L225.846 33.5262C228.601 32.297 230.535 28.9544 230.549 25.6119V22.6146H232.413V25.6119ZM238.622 38.692V21.1575H240.486V38.692H238.622ZM249.781 24.2997C249.781 26.5373 251.328 28.6644 254.007 29.5622L253.061 30.9986C251.079 30.3149 249.636 28.9475 248.876 27.2348C248.109 29.1202 246.59 30.605 244.532 31.3301L243.538 29.8936C246.266 28.9613 247.916 26.6961 247.93 24.2928V23.8163H244.076V22.3177H253.558V23.8163H249.781V24.2997ZM245.858 34.0718V32.5732H257.426V38.6575H255.568V34.0718H245.858ZM255.568 31.703V21.1575H257.426V25.6533H259.96V27.221H257.426V31.703H255.568ZM274.993 21.1575V28.25H277.797V29.7901H274.993V38.6575H273.156V21.1575H274.993ZM261.264 25.4116V23.8992H265.581V21.3854H267.431V23.8992H271.63V25.4116H261.264ZM262.162 30.7776C262.155 28.3881 263.992 26.703 266.52 26.703C269.02 26.703 270.857 28.3881 270.864 30.7776C270.857 33.174 269.02 34.8384 266.52 34.8453C263.992 34.8384 262.155 33.174 262.162 30.7776ZM263.937 30.7776C263.923 32.2901 265.021 33.3052 266.52 33.2983C267.998 33.3052 269.082 32.2901 269.096 30.7776C269.082 29.2721 267.998 28.2362 266.52 28.2362C265.021 28.2362 263.923 29.2721 263.937 30.7776ZM293.59 21.1575V38.6575H291.726V21.1575H293.59ZM279.212 33.9682C283.866 31.7583 286.132 28.6022 286.498 24.5207H280.061V23.0428H288.39C288.376 28.1602 286.201 32.6008 280.192 35.4669L279.212 33.9682Z" fill="black"/>
<defs>
<clipPath id="clip0_1012_19">
<rect width="38" height="38" fill="white" transform="translate(28 11)"/>
</clipPath>
</defs>
</svg>
