<svg width="95" height="94" viewBox="0 0 95 94" fill="none" xmlns="http://www.w3.org/2000/svg">
<path d="M43.5384 0.124184C81.6029 -2.51349 107.713 37.3843 88.5646 70.5104C70.3372 102.043 23.9238 101.768 6.01973 70.05C-10.7389 40.3668 9.32938 2.49464 43.5384 0.124184ZM27.5516 19.8619C23.79 20.1481 20.5829 26.5319 20.2127 29.8333C19.2479 38.4601 23.265 41.3512 28.6502 46.6886C36.6045 54.5757 44.5483 62.4715 52.4974 70.3638C57.933 75.1547 66.7373 75.4185 72.3119 70.7052C75.0288 68.4088 75.7397 66.166 73.3548 63.2335C72.2597 61.8871 65.4058 55.1015 64.2011 54.6223C62.5602 53.9706 60.8863 54.1723 59.4539 55.1963C58.1659 56.1187 56.4641 58.6632 55.2925 59.3477C55.0353 59.4976 54.9953 59.5769 54.6459 59.5287C53.6047 59.3839 48.821 55.5325 47.7519 54.624C42.8605 50.4692 38.0055 45.2732 34.8175 39.722C37.2911 36.6585 42.8379 33.9933 39.3057 29.4592C37.8995 27.6542 32.6743 22.4978 30.8473 21.0773C29.9539 20.3825 28.7301 19.774 27.5516 19.8636V19.8619Z" fill="#2CC805"/>
<path d="M27.5189 20.0088C28.7032 19.9195 29.9329 20.5253 30.8308 21.2169C32.6666 22.631 37.9173 27.7638 39.3304 29.5606C42.8797 34.074 37.3059 36.7271 34.8203 39.7766C38.0238 45.3025 42.9024 50.4765 47.8177 54.6106C48.8937 55.515 53.699 59.3471 54.7453 59.4929C55.0964 59.541 55.1366 59.4621 55.3951 59.3128C56.5724 58.6315 58.2824 56.0985 59.5768 55.1804C61.0161 54.161 62.6982 53.9602 64.3471 54.6089C65.5593 55.086 72.445 61.8406 73.5454 63.1809C75.9419 66.1 75.2275 68.3326 72.4974 70.6185C66.8956 75.3103 58.0484 75.0477 52.5863 70.2787C44.5985 62.4223 36.6159 54.5626 28.6229 46.7114C23.2132 41.3966 19.1748 38.5204 20.1442 29.933C20.5145 26.6484 23.739 20.2919 27.5189 20.007V20.0088Z" fill="white"/>
</svg>
