<svg width="445" height="60" viewBox="0 0 445 60" fill="none" xmlns="http://www.w3.org/2000/svg">
<rect width="445" height="60" rx="7" fill="#F9E008"/>
<path fill-rule="evenodd" clip-rule="evenodd" d="M47.0001 12.2667C36.5061 12.2667 28 18.8385 28 26.9437C28 31.9845 31.29 36.4283 36.2999 39.0713L34.192 46.7717C34.0057 47.4521 34.7839 47.9944 35.3815 47.6002L44.6216 41.5018C45.4013 41.577 46.1938 41.6209 47.0001 41.6209C57.4933 41.6209 66 35.0494 66 26.9437C66 18.8385 57.4933 12.2667 47.0001 12.2667" fill="black"/>
<path d="M159.056 23.9323C159.049 29.105 157.46 33.6837 151.079 36.8329L150.057 35.4378C153.227 33.884 155.112 31.9986 156.155 29.7818L150.43 30.3204L150.167 28.7182L156.714 28.2901C156.984 27.3854 157.136 26.4392 157.205 25.4448H151.065V23.9323H159.056ZM161.742 39.6367V22.1575H163.6V29.1464H166.314V30.6727H163.6V39.6367H161.742ZM176.741 23.9323C176.734 29.105 175.145 33.6837 168.764 36.8329L167.742 35.4378C170.912 33.884 172.797 31.9986 173.84 29.7818L168.115 30.3204L167.853 28.7182L174.4 28.2901C174.669 27.3854 174.821 26.4392 174.89 25.4448H168.75V23.9323H176.741ZM179.427 39.6367V22.1575H181.285V29.1464H183.999V30.6727H181.285V39.6367H179.427ZM193.3 23.221C197.043 23.2279 199.771 25.0718 199.771 27.8688C199.771 30.4862 197.478 32.2265 194.219 32.5028V35.942H201.353V37.4751H185.337V35.942H192.382V32.4959C189.136 32.2265 186.85 30.4862 186.85 27.8688C186.85 25.0718 189.578 23.2279 193.3 23.221ZM188.652 27.8688C188.652 29.8301 190.607 31.0456 193.3 31.0594C196.014 31.0456 197.962 29.8301 197.962 27.8688C197.962 25.9696 196.014 24.7196 193.3 24.7265C190.607 24.7196 188.652 25.9696 188.652 27.8688ZM219.038 36.018V37.558H203.023V36.018H210.067V32.9378H204.97V27.3715H215.246V24.913H204.936V23.4006H217.076V28.8633H206.814V31.4185H217.484V32.9378H211.904V36.018H219.038ZM232.413 26.6119C232.399 29.8094 234.326 33.0276 237.04 34.2224L235.922 35.7003C233.912 34.7403 232.323 32.7721 231.502 30.3757C230.694 32.9378 229.084 35.058 226.992 36.0732L225.846 34.5262C228.601 33.297 230.535 29.9544 230.549 26.6119V23.6146H232.413V26.6119ZM238.622 39.692V22.1575H240.486V39.692H238.622ZM249.781 25.2997C249.781 27.5373 251.328 29.6644 254.007 30.5622L253.061 31.9986C251.079 31.3149 249.636 29.9475 248.876 28.2348C248.109 30.1202 246.59 31.605 244.532 32.3301L243.538 30.8936C246.266 29.9613 247.916 27.6961 247.93 25.2928V24.8163H244.076V23.3177H253.558V24.8163H249.781V25.2997ZM245.858 35.0718V33.5732H257.426V39.6575H255.568V35.0718H245.858ZM255.568 32.703V22.1575H257.426V26.6533H259.96V28.221H257.426V32.703H255.568ZM274.993 22.1575V29.25H277.797V30.7901H274.993V39.6575H273.156V22.1575H274.993ZM261.264 26.4116V24.8992H265.581V22.3854H267.431V24.8992H271.63V26.4116H261.264ZM262.162 31.7776C262.155 29.3881 263.992 27.703 266.52 27.703C269.02 27.703 270.857 29.3881 270.864 31.7776C270.857 34.174 269.02 35.8384 266.52 35.8453C263.992 35.8384 262.155 34.174 262.162 31.7776ZM263.937 31.7776C263.923 33.2901 265.021 34.3052 266.52 34.2983C267.998 34.3052 269.082 33.2901 269.096 31.7776C269.082 30.2721 267.998 29.2362 266.52 29.2362C265.021 29.2362 263.923 30.2721 263.937 31.7776ZM293.59 22.1575V39.6575H291.726V22.1575H293.59ZM279.212 34.9682C283.866 32.7583 286.132 29.6022 286.498 25.5207H280.061V24.0428H288.39C288.376 29.1602 286.201 33.6008 280.192 36.4669L279.212 34.9682Z" fill="black"/>
</svg>
