<svg width="200" height="49" viewBox="0 0 200 49" fill="none" xmlns="http://www.w3.org/2000/svg">
<rect width="200" height="49" rx="11" fill="#AAD786"/>
<rect width="200" height="49" rx="11" stroke="#D9D9D9"/>
<path d="M71.2855 17.183C72.0811 17.183 72.7979 17.3384 73.4361 17.6492C74.0742 17.9558 74.5756 18.3826 74.9402 18.9296C75.3048 19.4724 75.4872 20.0877 75.4872 20.7756C75.4872 21.4634 75.3048 22.0787 74.9402 22.6215C74.5756 23.1644 74.0742 23.5891 73.4361 23.8957C72.7979 24.2023 72.0811 24.3557 71.2855 24.3557C70.4816 24.3557 69.7586 24.2023 69.1163 23.8957C68.474 23.5891 67.9706 23.1644 67.6059 22.6215C67.2455 22.0787 67.0652 21.4634 67.0652 20.7756C67.0652 20.0877 67.2455 19.4724 67.6059 18.9296C67.9706 18.3826 68.474 17.9558 69.1163 17.6492C69.7627 17.3384 70.4858 17.183 71.2855 17.183ZM68.9671 20.7756C68.963 21.1775 69.0604 21.5297 69.2593 21.8322C69.4582 22.1305 69.7337 22.3626 70.0859 22.5283C70.4381 22.6899 70.838 22.7707 71.2855 22.7707C71.7289 22.7707 72.1246 22.6899 72.4727 22.5283C72.8249 22.3626 73.0984 22.1305 73.2931 21.8322C73.492 21.5297 73.5914 21.1775 73.5914 20.7756C73.5914 20.3778 73.492 20.0297 73.2931 19.7314C73.0942 19.433 72.8207 19.203 72.4727 19.0414C72.1246 18.8798 71.7289 18.799 71.2855 18.799C70.838 18.799 70.4381 18.8798 70.0859 19.0414C69.7337 19.203 69.4582 19.433 69.2593 19.7314C69.0604 20.0297 68.963 20.3778 68.9671 20.7756ZM69.4582 25.3936H80.0058V29.5456H71.4098V30.8198H80.4844V32.3674H69.5079V28.1036H78.0604V26.9164H69.4582V25.3936ZM78.0479 16.6796H80.0058V24.6975H78.0479V16.6796ZM95.5997 32.5539H93.6294V16.6796H95.5997V32.5539ZM82.4416 28.1844C83.8173 27.5297 84.9589 26.7942 85.8663 25.9779C86.7779 25.1575 87.4782 24.2479 87.9671 23.2493C88.4561 22.2465 88.7586 21.134 88.8746 19.9116H83.2496V18.364H90.8636C90.8594 20.0173 90.6191 21.538 90.1426 22.9261C89.6702 24.3101 88.887 25.5801 87.7931 26.7362C86.7033 27.8923 85.2613 28.8971 83.4671 29.7507L82.4416 28.1844ZM116.69 30.6457H102.164V29.0483H108.423V25.953H103.761V17.73H105.719V20.328H113.078V17.73H115.024V25.953H110.362V29.0483H116.69V30.6457ZM113.078 24.3805V21.8943H105.719V24.3805H113.078ZM130.985 32.5539H129.014V16.6796H130.985V32.5539ZM117.826 28.1844C119.202 27.5297 120.344 26.7942 121.251 25.9779C122.163 25.1575 122.863 24.2479 123.352 23.2493C123.841 22.2465 124.143 21.134 124.259 19.9116H118.634V18.364H126.248C126.244 20.0173 126.004 21.538 125.527 22.9261C125.055 24.3101 124.272 25.5801 123.178 26.7362C122.088 27.8923 120.646 28.8971 118.852 29.7507L117.826 28.1844Z" fill="white"/>
</svg>
