<svg width="447" height="65" viewBox="0 0 447 65" fill="none" xmlns="http://www.w3.org/2000/svg">
<rect width="447" height="65" rx="11" fill="#AAD786"/>
<rect width="447" height="65" rx="11" stroke="#D9D9D9"/>
<path d="M179.729 25.183C180.524 25.183 181.241 25.3384 181.879 25.6492C182.518 25.9558 183.019 26.3826 183.384 26.9296C183.748 27.4724 183.931 28.0877 183.931 28.7756C183.931 29.4634 183.748 30.0787 183.384 30.6215C183.019 31.1644 182.518 31.5891 181.879 31.8957C181.241 32.2023 180.524 32.3557 179.729 32.3557C178.925 32.3557 178.202 32.2023 177.56 31.8957C176.917 31.5891 176.414 31.1644 176.049 30.6215C175.689 30.0787 175.509 29.4634 175.509 28.7756C175.509 28.0877 175.689 27.4724 176.049 26.9296C176.414 26.3826 176.917 25.9558 177.56 25.6492C178.206 25.3384 178.929 25.183 179.729 25.183ZM177.41 28.7756C177.406 29.1775 177.504 29.5297 177.703 29.8322C177.902 30.1305 178.177 30.3626 178.529 30.5283C178.881 30.6899 179.281 30.7707 179.729 30.7707C180.172 30.7707 180.568 30.6899 180.916 30.5283C181.268 30.3626 181.542 30.1305 181.736 29.8322C181.935 29.5297 182.035 29.1775 182.035 28.7756C182.035 28.3778 181.935 28.0297 181.736 27.7314C181.538 27.433 181.264 27.203 180.916 27.0414C180.568 26.8798 180.172 26.799 179.729 26.799C179.281 26.799 178.881 26.8798 178.529 27.0414C178.177 27.203 177.902 27.433 177.703 27.7314C177.504 28.0297 177.406 28.3778 177.41 28.7756ZM177.902 33.3936H188.449V37.5456H179.853V38.8198H188.928V40.3674H177.951V36.1036H186.504V34.9164H177.902V33.3936ZM186.491 24.6796H188.449V32.6975H186.491V24.6796ZM204.043 40.5539H202.073V24.6796H204.043V40.5539ZM190.885 36.1844C192.261 35.5297 193.402 34.7942 194.31 33.9779C195.221 33.1575 195.922 32.2479 196.411 31.2493C196.899 30.2465 197.202 29.134 197.318 27.9116H191.693V26.364H199.307C199.303 28.0173 199.062 29.538 198.586 30.9261C198.114 32.3101 197.33 33.5801 196.236 34.7362C195.147 35.8923 193.705 36.8971 191.911 37.7507L190.885 36.1844ZM216.612 28.4959C216.607 29.4696 216.769 30.4206 217.096 31.3488C217.428 32.2728 217.904 33.0953 218.526 33.8163C219.147 34.5331 219.877 35.0718 220.714 35.4323L219.551 36.9986C218.656 36.5843 217.875 35.9793 217.208 35.1837C216.545 34.384 216.025 33.4537 215.648 32.393C215.279 33.5407 214.753 34.5477 214.069 35.4137C213.386 36.2756 212.574 36.9261 211.633 37.3653L210.44 35.7369C211.297 35.364 212.041 34.8046 212.671 34.0587C213.305 33.3128 213.79 32.4572 214.125 31.4917C214.461 30.5221 214.631 29.5235 214.635 28.4959V25.9537H216.612V28.4959ZM221.857 24.6796H223.828V40.5912H221.857V24.6796ZM231.864 27.4392C231.864 28.1022 232.005 28.7424 232.286 29.3598C232.572 29.9772 232.997 30.5283 233.56 31.0131C234.128 31.4979 234.816 31.8729 235.624 32.1381L234.63 33.6485C233.759 33.3584 233.009 32.9337 232.38 32.3743C231.75 31.8108 231.257 31.1499 230.9 30.3916C230.544 31.2244 230.036 31.9475 229.377 32.5608C228.719 33.1699 227.933 33.6298 227.022 33.9406L225.984 32.4302C226.813 32.1526 227.521 31.7569 228.109 31.2431C228.698 30.7251 229.141 30.1367 229.44 29.4779C229.742 28.8191 229.895 28.1354 229.9 27.4268V27.2403H226.531V25.6678H235.158V27.2403H231.864V27.4392ZM228.109 34.9848H238.701V40.5539H236.737V36.5511H228.109V34.9848ZM236.737 24.6796H238.701V28.645H240.92V30.2797H238.701V34.2514H236.737V24.6796ZM254.164 31.0069H256.613V32.6167H254.164V40.5539H252.231V24.6796H254.164V31.0069ZM241.634 27.1098H245.388V24.9033H247.339V27.1098H251.007V28.6885H241.634V27.1098ZM242.367 33.4558C242.363 32.7348 242.533 32.0905 242.877 31.5228C243.221 30.9551 243.697 30.5117 244.306 30.1927C244.92 29.8736 245.61 29.7141 246.376 29.7141C247.13 29.7141 247.81 29.8736 248.415 30.1927C249.024 30.5117 249.5 30.9551 249.844 31.5228C250.192 32.0905 250.368 32.7348 250.373 33.4558C250.368 34.1768 250.192 34.8211 249.844 35.3888C249.5 35.9565 249.024 36.3999 248.415 36.7189C247.81 37.0338 247.13 37.1913 246.376 37.1913C245.61 37.1913 244.92 37.0338 244.306 36.7189C243.697 36.3999 243.221 35.9565 242.877 35.3888C242.533 34.8211 242.363 34.1768 242.367 33.4558ZM244.238 33.4558C244.234 33.8826 244.323 34.2576 244.505 34.5808C244.688 34.904 244.94 35.1526 245.264 35.3267C245.591 35.4965 245.962 35.5794 246.376 35.5753C246.782 35.5794 247.145 35.4965 247.464 35.3267C247.787 35.1526 248.04 34.904 248.222 34.5808C248.404 34.2576 248.498 33.8826 248.502 33.4558C248.498 33.0331 248.404 32.6602 248.222 32.337C248.04 32.0138 247.787 31.7631 247.464 31.5849C247.145 31.4068 246.782 31.3177 246.376 31.3177C245.966 31.3177 245.597 31.4068 245.27 31.5849C244.942 31.7631 244.688 32.0138 244.505 32.337C244.323 32.6602 244.234 33.0331 244.238 33.4558ZM270.541 40.5539H268.571V24.6796H270.541V40.5539ZM257.383 36.1844C258.759 35.5297 259.9 34.7942 260.808 33.9779C261.719 33.1575 262.42 32.2479 262.909 31.2493C263.398 30.2465 263.7 29.134 263.816 27.9116H258.191V26.364H265.805C265.801 28.0173 265.56 29.538 265.084 30.9261C264.612 32.3101 263.828 33.5801 262.735 34.7362C261.645 35.8923 260.203 36.8971 258.409 37.7507L257.383 36.1844Z" fill="white"/>
</svg>
